<?xml version="1.0" standalone="no"?>
<!DOCTYPE svg PUBLIC "-//W3C//DTD SVG 20010904//EN"
 "http://www.w3.org/TR/2001/REC-SVG-20010904/DTD/svg10.dtd">
<svg version="1.0" xmlns="http://www.w3.org/2000/svg"
 width="500.000000pt" height="500.000000pt" viewBox="0 0 500.000000 500.000000"
 preserveAspectRatio="xMidYMid meet">

<g transform="translate(0.000000,500.000000) scale(0.100000,-0.100000)"
fill="#000000" stroke="none">
<path d="M839 3397 c-42 -22 -56 -39 -156 -181 l-28 -40 -3 -705 c-2 -492 0
-717 8 -744 14 -49 65 -106 115 -128 38 -18 115 -19 1675 -19 1573 0 1637 1
1676 19 23 10 57 34 77 52 20 19 53 47 73 64 77 62 74 23 74 828 0 641 -2 721
-16 750 -23 45 -63 86 -106 108 -36 18 -83 19 -1691 19 l-1654 0 -44 -23z
m3374 -21 c71 -29 117 -117 117 -221 l0 -35 -1790 0 -1790 0 0 59 c0 82 39
156 99 188 l44 23 1644 0 c1358 0 1649 -2 1676 -14z m115 -918 c-3 -689 -1
-661 -60 -714 -63 -58 65 -54 -1741 -52 l-1653 3 -36 24 c-19 13 -46 40 -59
59 l-24 36 -3 638 -3 638 1791 0 1791 0 -3 -632z"/>
<path d="M3630 3255 l0 -65 65 0 65 0 0 65 0 65 -65 0 -65 0 0 -65z m100 0 c0
-33 -2 -35 -35 -35 -33 0 -35 2 -35 35 0 33 2 35 35 35 33 0 35 -2 35 -35z"/>
<path d="M4087 3293 c-4 -3 0 -15 10 -25 15 -17 15 -19 -2 -38 -14 -16 -16
-23 -7 -32 9 -9 16 -7 32 7 19 17 21 17 39 1 26 -23 39 -2 15 25 -16 18 -16
20 0 38 23 25 2 40 -23 17 -16 -15 -19 -15 -31 -1 -14 16 -23 19 -33 8z"/>
<path d="M3870 3205 c0 -12 13 -15 55 -15 42 0 55 3 55 15 0 12 -13 15 -55 15
-42 0 -55 -3 -55 -15z"/>
<path d="M2646 2894 c-26 -9 -46 -17 -44 -19 2 -2 26 3 53 11 64 20 206 14
255 -10 29 -14 31 -14 15 -1 -46 37 -188 46 -279 19z"/>
<path d="M1141 2876 c-12 -13 -24 -41 -26 -62 l-5 -39 10 39 c19 71 28 76 160
76 79 0 121 -4 130 -12 12 -11 12 -10 1 5 -11 14 -31 17 -130 17 -110 0 -119
-1 -140 -24z"/>
<path d="M1482 2894 c7 -6 760 -5 766 1 3 3 -169 5 -383 5 -213 0 -385 -3
-383 -6z"/>
<path d="M2326 2874 c-15 -14 -26 -28 -22 -31 3 -3 15 6 26 20 20 25 27 26
123 30 l102 3 -100 2 c-94 1 -102 0 -129 -24z"/>
<path d="M3006 2869 c-14 -17 -26 -35 -26 -41 0 -6 10 4 23 23 l23 34 159 5
160 6 -157 2 -156 2 -26 -31z"/>
<path d="M3727 2893 l132 -4 24 -29 c21 -24 26 -44 31 -112 14 -193 28 -589
22 -612 -9 -38 -54 -56 -136 -56 -84 0 -124 17 -138 60 -14 40 -43 39 -62 -3
-24 -52 -46 -57 -236 -54 -153 2 -174 4 -193 21 -20 18 -22 18 -41 1 -12 -11
-42 -19 -84 -22 -81 -7 -131 2 -155 28 l-19 20 -43 -21 c-80 -41 -233 -44
-309 -7 -25 13 -31 13 -51 -1 -17 -12 -48 -16 -117 -17 -91 0 -94 1 -118 28
l-24 28 -30 -24 c-39 -33 -88 -37 -512 -34 -304 2 -349 4 -363 18 -15 15 -19
15 -53 -2 -44 -23 -147 -25 -197 -5 -41 17 -50 43 -41 124 5 54 5 55 -7 24 -7
-18 -16 -31 -20 -28 -4 3 -3 0 3 -6 5 -7 10 -27 10 -44 0 -45 41 -91 93 -105
48 -13 136 -5 176 15 22 12 29 12 45 0 16 -11 96 -14 426 -14 l407 0 36 24 35
24 21 -24 c19 -22 28 -24 113 -24 59 0 103 5 119 14 24 12 34 11 85 -6 79 -27
209 -22 272 11 l43 22 26 -21 c22 -17 40 -20 117 -20 62 0 100 5 120 15 26 14
31 14 46 0 14 -12 50 -15 202 -15 183 0 185 0 212 25 14 13 26 31 26 40 0 25
18 17 56 -25 l36 -40 97 0 c84 0 100 3 119 20 12 11 24 31 27 43 3 12 -1 170
-10 351 -21 442 -13 427 -220 424 l-130 -2 132 -3z"/>
<path d="M1448 2870 c-10 -10 -14 -22 -9 -24 4 -3 13 6 19 19 14 30 12 31 -10
5z"/>
<path d="M2260 2886 c0 -2 7 -7 16 -10 8 -3 12 -2 9 4 -6 10 -25 14 -25 6z"/>
<path d="M2560 2886 c0 -2 8 -10 18 -17 15 -13 16 -12 3 4 -13 16 -21 21 -21
13z"/>
<path d="M3371 2881 c14 -5 35 -14 47 -20 12 -6 22 -9 22 -7 0 10 -59 36 -77
35 -12 0 -9 -3 8 -8z"/>
<path d="M3566 2868 c-7 -13 -22 -45 -31 -71 -18 -48 -19 -48 -32 -25 -12 21
-12 19 -7 -22 4 -25 8 -46 9 -48 2 -2 17 34 35 80 18 46 37 89 42 96 6 6 8 12
4 12 -3 0 -12 -10 -20 -22z"/>
<path d="M1496 2846 c-8 -6 -22 -56 -32 -121 l-18 -110 -16 95 c-23 141 -23
140 -151 140 -80 0 -108 -3 -112 -13 -3 -8 -30 -155 -61 -328 -31 -173 -58
-322 -60 -332 -9 -37 28 -57 102 -57 39 0 76 5 85 13 12 8 23 43 34 112 9 54
18 95 19 89 1 -5 8 -49 14 -97 7 -49 19 -94 27 -102 17 -18 176 -21 219 -5 18
7 30 7 39 0 16 -13 497 -12 541 1 25 8 39 24 67 76 l35 66 6 -44 c11 -66 25
-96 49 -103 29 -8 97 -8 136 0 40 8 40 18 1 199 -16 77 -30 148 -30 157 0 18
100 192 106 185 2 -1 -3 -27 -11 -57 -25 -98 -47 -280 -40 -329 18 -118 80
-163 225 -163 120 0 167 24 227 120 l24 37 -7 -45 c-15 -95 -2 -110 96 -110
73 0 110 17 110 53 1 12 7 47 14 77 l13 55 16 -74 c23 -98 35 -111 108 -111
32 0 69 4 83 10 16 6 27 6 31 0 4 -6 39 -10 79 -10 80 0 92 7 116 68 12 31 15
32 66 32 l54 0 -6 -29 c-5 -21 -1 -34 15 -50 18 -18 33 -21 95 -21 54 0 77 4
86 15 18 22 -6 647 -27 688 l-14 27 -120 0 -120 0 -19 -46 c-11 -25 -34 -85
-50 -132 -49 -139 -163 -422 -170 -422 -4 0 -13 27 -20 59 l-12 59 35 32 c44
38 72 109 88 223 11 75 11 90 -5 130 -32 84 -67 97 -268 97 l-148 0 -10 -25
c-5 -13 -14 -55 -21 -92 -15 -87 -25 -97 -32 -33 -7 60 -30 104 -70 134 -25
18 -42 21 -140 21 -97 0 -118 -3 -154 -23 -43 -22 -43 -22 -55 -2 -11 18 -23
20 -104 20 l-90 0 -29 -60 c-16 -33 -32 -60 -36 -60 -3 0 -9 19 -13 42 -11 70
-25 78 -132 78 -64 0 -94 -4 -97 -12 -4 -10 -6 -10 -6 0 -1 16 -356 18 -366 2
-4 -7 -11 -7 -18 -2 -19 15 -155 21 -171 8z m1398 -24 c16 -10 32 -24 34 -31
3 -10 -9 -6 -34 10 -34 20 -51 24 -129 24 -91 0 -108 -5 -180 -50 l-30 -19 28
31 c26 27 50 38 132 57 37 9 150 -6 179 -22z m-1521 11 c3 -5 -37 -8 -89 -8
-92 0 -94 0 -98 -25 -3 -14 -22 -117 -42 -230 -44 -246 -51 -281 -53 -255 0
11 8 70 19 130 11 61 25 135 30 165 22 120 41 214 46 222 6 10 181 11 187 1z
m267 -4 c0 -8 -20 -10 -61 -7 -72 5 -68 12 -94 -145 -10 -59 -20 -105 -23
-102 -5 5 10 117 29 213 l10 52 70 0 c44 0 69 -4 69 -11z m390 1 c0 -6 -60
-10 -159 -10 l-159 0 -6 -27 c-3 -16 -12 -66 -20 -113 -13 -76 -34 -151 -35
-125 0 6 6 46 14 90 8 44 18 100 21 125 4 25 11 51 17 58 12 15 327 18 327 2z
m210 -1 c0 -7 -26 -9 -75 -7 -44 2 -77 -1 -79 -7 -3 -5 -5 -2 -5 8 -1 15 9 17
79 17 51 0 80 -4 80 -11z m285 0 c-4 -6 -34 -9 -71 -8 l-64 2 -39 -80 c-22
-44 -45 -84 -51 -88 -15 -9 -15 -9 35 98 l40 86 78 1 c53 0 76 -3 72 -11z
m814 0 c27 -5 57 -20 68 -31 l18 -21 -35 19 c-28 15 -64 19 -181 22 -169 5
-150 18 -173 -118 -28 -164 -56 -280 -56 -234 0 18 51 298 61 337 l10 37 119
0 c65 0 141 -5 169 -11z m501 1 c0 -6 -43 -10 -109 -10 -102 0 -110 -1 -116
-21 -4 -11 -9 -18 -11 -16 -3 2 1 16 7 31 12 26 13 26 121 26 65 0 108 -4 108
-10z m-1743 -52 c-3 -8 -6 -5 -6 6 -1 11 2 17 5 13 3 -3 4 -12 1 -19z m34
-253 c3 -24 -133 -263 -139 -245 -14 40 -36 50 -110 50 -70 0 -73 1 -70 23 3
20 9 22 85 27 46 3 87 10 93 16 6 6 16 41 21 79 16 102 6 115 -86 115 -72 0
-72 0 -67 25 4 22 9 25 51 25 25 0 70 3 99 6 52 7 52 7 52 43 0 20 3 47 7 61
5 19 13 -1 35 -90 15 -63 28 -124 29 -135z m-24 203 c-3 -7 -5 -2 -5 12 0 14
2 19 5 13 2 -7 2 -19 0 -25z m10 -40 c-3 -8 -6 -5 -6 6 -1 11 2 17 5 13 3 -3
4 -12 1 -19z m668 -177 c-21 -129 -26 -153 -31 -148 -3 2 4 56 16 120 11 63
21 135 22 159 l1 43 4 -39 c3 -22 -3 -82 -12 -135z m491 113 c-3 -30 -13 -71
-21 -90 -13 -32 -17 -34 -57 -33 l-43 1 35 7 c54 11 58 16 71 96 14 87 25 101
15 19z m-762 -8 c-3 -21 -9 -35 -11 -32 -3 3 -2 21 1 42 4 20 10 34 12 31 3
-3 2 -21 -2 -41z m266 31 c0 -43 -52 -294 -65 -313 -19 -29 -55 -32 -55 -6 0
22 28 216 37 252 12 52 33 80 58 80 14 0 25 -6 25 -13z m459 4 c15 -9 7 -86
-11 -108 -16 -20 -50 -16 -44 5 3 9 8 35 12 57 10 58 15 64 43 46z m-1102 -43
c-3 -8 -6 -5 -6 6 -1 11 2 17 5 13 3 -3 4 -12 1 -19z m1583 -93 l0 -115 -32 1
c-31 2 -31 2 -5 6 l27 4 0 110 c0 60 2 109 5 109 3 0 5 -52 5 -115z m-1740 55
c0 -6 -31 -9 -77 -8 l-78 1 65 7 c36 4 71 7 78 8 6 1 12 -2 12 -8z m517 -22
c-3 -8 -6 -5 -6 6 -1 11 2 17 5 13 3 -3 4 -12 1 -19z m-1034 -8 c-3 -11 -7
-20 -9 -20 -2 0 -4 9 -4 20 0 11 4 20 9 20 5 0 7 -9 4 -20z m1024 -47 c-3 -10
-5 -4 -5 12 0 17 2 24 5 18 2 -7 2 -21 0 -30z m999 -39 c-4 -9 -9 -15 -11 -12
-3 3 -3 13 1 22 4 9 9 15 11 12 3 -3 3 -13 -1 -22z m200 -22 c-11 -10 -15 4
-8 28 l7 25 3 -23 c2 -13 1 -26 -2 -30z m-1557 11 c-15 -40 -42 -83 -53 -83
-5 0 -7 -3 -3 -6 6 -7 -38 -99 -72 -149 -14 -21 -21 -25 -21 -13 0 16 147 278
156 278 2 0 -1 -12 -7 -27z m348 -15 c-3 -7 -5 -2 -5 12 0 14 2 19 5 13 2 -7
2 -19 0 -25z m500 -20 c-3 -7 -5 -2 -5 12 0 14 2 19 5 13 2 -7 2 -19 0 -25z
m473 -59 c-12 -32 -26 -59 -31 -59 -11 0 -11 6 0 28 6 9 18 39 27 66 10 27 20
44 22 37 2 -7 -6 -39 -18 -72z m-983 -31 c-2 -18 -4 -6 -4 27 0 33 2 48 4 33
2 -15 2 -42 0 -60z m500 50 c-3 -8 -6 -5 -6 6 -1 11 2 17 5 13 3 -3 4 -12 1
-19z m-1350 -20 c-3 -8 -6 -5 -6 6 -1 11 2 17 5 13 3 -3 4 -12 1 -19z m1126
-25 c-9 -28 -34 -43 -67 -42 -30 1 -30 1 7 11 20 6 42 19 48 29 12 24 20 25
12 2z m214 -15 c-3 -7 -5 -2 -5 12 0 14 2 19 5 13 2 -7 2 -19 0 -25z m-1039
-5 c-21 -2 -57 -2 -80 0 -24 2 -7 4 37 4 44 0 63 -2 43 -4z m-833 -68 c-4 -25
-9 -44 -12 -41 -2 2 -1 25 2 51 4 25 9 44 12 41 2 -2 1 -25 -2 -51z m1862 33
c-3 -8 -6 -5 -6 6 -1 11 2 17 5 13 3 -3 4 -12 1 -19z m455 -20 c-7 -7 -12 -8
-12 -2 0 14 12 26 19 19 2 -3 -1 -11 -7 -17z m-465 -20 c-3 -8 -6 -5 -6 6 -1
11 2 17 5 13 3 -3 4 -12 1 -19z m449 -34 c-4 -9 -9 -15 -11 -12 -3 3 -3 13 1
22 4 9 9 15 11 12 3 -3 3 -13 -1 -22z"/>
<path d="M2050 2574 c6 -15 7 -49 4 -77 -8 -55 5 -59 26 -7 15 37 -1 110 -25
110 -11 0 -12 -5 -5 -26z"/>
<path d="M1102 2750 c0 -14 2 -19 5 -12 2 6 2 18 0 25 -3 6 -5 1 -5 -13z"/>
<path d="M1085 2675 c-3 -26 -4 -49 -2 -51 3 -3 8 16 12 41 3 26 4 49 2 51 -3
3 -8 -16 -12 -41z"/>
<path d="M1065 2565 c-3 -26 -4 -49 -2 -51 3 -3 8 16 12 41 3 26 4 49 2 51 -3
3 -8 -16 -12 -41z"/>
<path d="M895 2539 c-4 -6 -5 -12 -2 -15 2 -3 7 2 10 11 7 17 1 20 -8 4z"/>
<path d="M942 2530 c0 -14 2 -19 5 -12 2 6 2 18 0 25 -3 6 -5 1 -5 -13z"/>
<path d="M905 2510 c-7 -12 2 -30 16 -30 5 0 9 9 9 20 0 21 -15 27 -25 10z"/>
<path d="M1041 2424 c-7 -41 -11 -78 -8 -80 2 -3 10 30 16 72 7 41 11 78 8 80
-2 3 -10 -30 -16 -72z"/>
<path d="M941 2470 c0 -8 4 -22 9 -30 12 -18 12 -2 0 25 -6 13 -9 15 -9 5z"/>
<path d="M866 2453 c-6 -14 -5 -15 5 -6 7 7 10 15 7 18 -3 3 -9 -2 -12 -12z"/>
<path d="M925 2420 c-3 -5 -14 -10 -24 -10 -9 0 -26 -7 -37 -16 -18 -14 -18
-15 5 -4 13 7 33 10 45 8 16 -3 22 1 22 14 0 21 -2 22 -11 8z"/>
<path d="M1022 2305 c0 -16 2 -22 5 -12 2 9 2 23 0 30 -3 6 -5 -1 -5 -18z"/>
<path d="M1538 1994 c-10 -9 -11 -74 -2 -74 4 0 13 8 20 18 13 16 13 16 14 -3
1 -14 7 -8 20 20 18 39 18 64 0 35 -9 -13 -10 -13 -10 0 -1 12 -4 11 -14 -3
-13 -17 -15 -17 -18 -2 -1 9 -6 13 -10 9z"/>
<path d="M1616 1975 c-4 -16 -9 -36 -12 -42 -5 -19 7 -16 22 5 13 16 14 16 8
0 -3 -10 -2 -18 4 -18 11 0 22 33 22 65 -1 19 -1 19 -14 2 -14 -18 -14 -18
-19 0 -3 13 -6 10 -11 -12z"/>
<path d="M1674 1973 c-3 -16 -7 -34 -10 -40 -2 -8 5 -13 16 -13 11 0 20 5 20
10 0 6 -6 10 -12 10 -10 0 -9 3 1 9 8 5 10 14 6 21 -4 7 -2 16 6 21 11 7 10 9
-3 9 -11 0 -20 -10 -24 -27z"/>
<path d="M1720 1983 c0 -10 -3 -28 -6 -40 -4 -13 -2 -23 4 -23 6 0 13 8 15 18
4 16 5 16 6 0 1 -13 10 -18 31 -18 17 0 30 5 30 10 0 6 -6 10 -12 10 -10 0 -9
3 1 9 8 5 10 14 6 21 -4 7 -2 16 6 21 11 7 11 9 -2 9 -18 0 -29 -20 -29 -51 0
-10 -5 -19 -10 -19 -7 0 -8 13 -4 35 5 31 4 35 -15 35 -13 0 -21 -6 -21 -17z"/>
<path d="M1846 1978 c-3 -13 -6 -31 -6 -42 0 -15 3 -16 14 -7 11 9 15 9 19 -1
6 -19 13 -8 21 35 7 37 -8 54 -17 20 -4 -17 -5 -17 -6 0 -1 24 -18 21 -25 -5z"/>
<path d="M1906 1969 c-9 -45 -8 -49 10 -49 10 0 14 6 11 15 -4 8 -2 17 4 20 5
4 6 11 3 17 -4 6 0 14 7 19 11 7 9 9 -7 9 -16 0 -23 -8 -28 -31z"/>
<path d="M1963 1979 c3 -10 -2 -27 -10 -38 -8 -12 -10 -21 -4 -21 5 0 13 5 17
11 4 8 9 7 15 -2 6 -10 9 -6 9 13 0 14 2 33 5 40 4 9 -2 14 -15 14 -15 0 -20
-5 -17 -17z"/>
<path d="M2015 1960 c-1 -51 8 -51 22 0 9 35 8 40 -6 40 -12 0 -16 -10 -16
-40z"/>
<path d="M2099 1973 c-5 -14 -8 -32 -5 -40 7 -18 35 -16 43 2 8 22 -6 33 -17
15 -11 -17 -13 0 -4 25 5 13 8 14 15 3 7 -10 9 -9 9 5 0 27 -29 20 -41 -10z"/>
<path d="M2156 1978 c-10 -38 -7 -58 8 -58 10 0 14 9 12 28 -1 15 2 33 7 40 7
8 5 12 -6 12 -8 0 -17 -10 -21 -22z"/>
<path d="M2200 1976 c0 -13 -3 -31 -6 -40 -3 -9 -1 -16 4 -16 6 0 13 8 15 18
4 16 5 16 6 0 1 -22 17 -23 25 -2 10 25 7 72 -3 55 -6 -9 -11 -10 -15 -2 -12
19 -26 12 -26 -13z"/>
<path d="M2264 1973 c-3 -16 -7 -34 -10 -40 -2 -8 5 -13 16 -13 11 0 20 5 20
10 0 6 -6 10 -12 10 -10 0 -9 3 1 9 8 5 10 14 6 21 -4 7 -2 16 6 21 11 7 10 9
-3 9 -11 0 -20 -10 -24 -27z"/>
<path d="M2310 1983 c0 -10 -3 -28 -6 -40 -4 -13 -2 -23 4 -23 6 0 13 8 15 18
4 16 5 16 6 0 1 -14 9 -17 36 -15 33 2 35 4 35 40 0 47 -15 48 -30 2 -6 -19
-16 -35 -21 -35 -6 0 -7 15 -3 35 5 31 4 35 -15 35 -13 0 -21 -6 -21 -17z"/>
<path d="M2422 1959 c-2 -26 1 -38 8 -34 5 3 10 17 10 30 0 13 5 27 11 31 8 5
10 -4 7 -30 -4 -37 5 -49 16 -20 14 37 7 60 -21 62 -26 2 -28 -1 -31 -39z"/>
<path d="M2496 1984 c-13 -33 -7 -64 13 -64 21 0 31 19 31 56 0 28 -34 34 -44
8z m21 -31 c-3 -10 -5 -4 -5 12 0 17 2 24 5 18 2 -7 2 -21 0 -30z"/>
<path d="M2554 1973 c-3 -16 -7 -34 -10 -40 -2 -7 1 -13 6 -13 5 0 11 8 13 18
4 16 5 16 6 0 1 -21 20 -24 25 -5 12 38 15 67 7 67 -5 0 -12 -8 -14 -17 -4
-17 -5 -17 -6 0 -2 27 -20 20 -27 -10z"/>
<path d="M2647 1993 c-4 -3 -7 -22 -7 -40 0 -27 4 -34 17 -31 9 2 18 9 21 17
3 10 0 12 -12 8 -18 -7 -19 -2 -6 28 5 11 9 14 9 7 1 -7 6 -10 11 -7 6 4 8 11
5 16 -7 11 -29 12 -38 2z"/>
<path d="M2696 1978 c-10 -40 -7 -54 14 -54 11 0 20 7 20 16 0 8 3 25 6 38 5
17 2 22 -14 22 -12 0 -22 -9 -26 -22z"/>
<path d="M2750 1976 c0 -13 -3 -31 -6 -40 -4 -12 0 -16 15 -16 12 0 21 5 21
10 0 6 -5 10 -11 10 -8 0 -9 4 0 13 6 8 8 17 4 21 -4 4 -1 11 7 16 12 8 10 10
-7 10 -18 0 -23 -6 -23 -24z"/>
<path d="M2802 1967 c-16 -43 -16 -42 14 -43 23 -2 25 1 22 34 -4 46 -21 51
-36 9z"/>
<path d="M2852 1959 c-2 -26 1 -38 8 -34 5 3 10 16 10 29 0 12 5 27 12 34 9 9
8 12 -7 12 -16 0 -21 -8 -23 -41z"/>
<path d="M2896 1977 c-9 -34 -7 -59 4 -52 6 3 10 20 10 36 0 18 4 28 10 24 6
-3 10 -19 10 -36 0 -40 12 -36 32 11 9 22 12 40 7 40 -5 0 -14 -10 -19 -22 -8
-22 -9 -22 -9 -3 -1 29 -37 30 -45 2z"/>
<path d="M2987 1990 c-11 -29 -14 -70 -6 -70 11 0 22 44 16 67 -3 15 -5 15
-10 3z"/>
<path d="M3015 1960 c-1 -51 8 -51 22 0 9 35 8 40 -6 40 -12 0 -16 -10 -16
-40z"/>
<path d="M3064 1960 c0 -22 3 -40 6 -40 9 0 39 80 30 80 -5 0 -11 -6 -13 -12
-4 -10 -6 -10 -6 0 -1 6 -5 12 -10 12 -5 0 -8 -18 -7 -40z"/>
<path d="M3140 1976 c0 -13 -3 -31 -6 -40 -3 -9 -1 -16 5 -16 6 0 11 8 12 18
0 10 3 12 6 4 2 -6 9 -10 14 -6 5 3 9 0 9 -7 0 -24 17 5 23 39 7 34 -6 43 -22
15 -9 -17 -10 -17 -16 0 -10 25 -25 21 -25 -7z"/>
<path d="M3216 1969 c-9 -45 -8 -49 10 -49 10 0 14 6 11 15 -4 8 -2 17 4 20 5
4 6 11 3 17 -4 6 0 14 7 19 11 7 9 9 -7 9 -16 0 -23 -8 -28 -31z"/>
<path d="M3264 1973 c-3 -16 -7 -34 -10 -40 -2 -8 5 -13 16 -13 11 0 20 5 20
10 0 6 -6 10 -12 10 -10 0 -9 3 1 9 8 5 10 14 6 21 -4 7 -2 16 6 21 11 7 10 9
-3 9 -11 0 -20 -10 -24 -27z"/>
<path d="M3313 1960 c0 -22 3 -40 8 -40 5 0 9 9 9 21 0 11 5 29 10 40 9 15 7
19 -7 19 -14 0 -18 -9 -20 -40z"/>
<path d="M3364 1970 c3 -19 2 -29 -4 -25 -6 3 -10 -1 -10 -9 0 -9 9 -16 20
-16 21 0 29 33 10 45 -17 10 -11 25 7 18 11 -4 14 -3 9 5 -4 7 -14 12 -23 12
-12 0 -14 -7 -9 -30z"/>
<path d="M3437 1990 c-11 -29 -14 -70 -6 -70 11 0 22 44 16 67 -3 15 -5 15
-10 3z"/>
<path d="M3464 1973 c-3 -16 -7 -34 -10 -40 -2 -7 1 -13 6 -13 5 0 11 8 13 18
4 16 5 16 6 0 1 -21 20 -24 25 -5 12 38 15 67 7 67 -5 0 -12 -8 -14 -17 -4
-17 -5 -17 -6 0 -2 27 -20 20 -27 -10z"/>
<path d="M3526 1969 c-8 -42 -8 -49 3 -49 5 0 12 8 14 18 4 16 5 16 6 0 2 -29
18 -20 25 13 9 47 8 53 -9 39 -10 -9 -15 -9 -15 -1 0 24 -18 9 -24 -20z"/>
<path d="M3595 1988 c-13 -34 -9 -62 7 -66 20 -4 43 41 34 65 -7 17 -35 17
-41 1z m16 -41 c-13 -13 -15 1 -4 30 7 17 8 17 11 -1 2 -10 -1 -23 -7 -29z"/>
<path d="M3651 1963 c-1 -24 4 -43 9 -43 6 0 10 2 10 4 0 2 7 20 15 40 8 20
11 36 6 36 -5 0 -13 -10 -17 -22 l-8 -23 -7 25 c-6 20 -7 17 -8 -17z"/>
<path d="M3702 1967 c-16 -43 -16 -42 14 -43 23 -2 25 1 22 34 -4 46 -21 51
-36 9z"/>
<path d="M3752 1959 c-2 -26 1 -38 8 -34 5 3 10 16 10 29 0 12 5 27 12 34 9 9
8 12 -7 12 -16 0 -21 -8 -23 -41z"/>
<path d="M3796 1978 c-9 -34 -7 -60 3 -54 11 7 20 76 10 76 -4 0 -9 -10 -13
-22z"/>
<path d="M3826 1984 c-13 -33 -7 -64 13 -64 21 0 31 19 31 56 0 28 -34 34 -44
8z m21 -31 c-3 -10 -5 -4 -5 12 0 17 2 24 5 18 2 -7 2 -21 0 -30z"/>
<path d="M3884 1973 c-3 -16 -7 -34 -10 -40 -2 -7 1 -13 6 -13 5 0 11 8 13 18
4 16 5 16 6 0 1 -21 20 -24 25 -5 12 38 15 67 7 67 -5 0 -12 -8 -14 -17 -4
-17 -5 -17 -6 0 -2 27 -20 20 -27 -10z"/>
<path d="M2050 1960 c0 -5 7 -10 15 -10 8 0 15 5 15 10 0 6 -7 10 -15 10 -8 0
-15 -4 -15 -10z"/>
</g>
</svg>
